<svg id="Capa_1" data-name="Capa 1" xmlns="http://www.w3.org/2000/svg" viewBox="0 0 45 45"><defs><style>.cls-1{fill:#fff;stroke:#fff;}.cls-1,.cls-3{stroke-miterlimit:10;}.cls-2{fill:#ffde59;}.cls-3{fill:none;stroke:#000015;stroke-width:2px;}</style></defs><circle class="cls-1" cx="21.71" cy="22.84" r="20.36"/><path class="cls-2" d="M11.22,22.4l.69.47.23.46.08.62-1.3,1.19-.85.74-.15,1.54c.23.23,1.53,2.71,1.53,2.71.69-2.24,1.84-2.79,1.84-2.79.61-3.24,4.36-3.08,4.36-3.08v.3c0-.3,1.31-1.46,1.31-1.46.23-.54-.69-1.78-.69-1.78-.23.08-1.76-1.24-1.76-1.24-.92-.07-1.23-2.31-1.23-2.31,0-1.55,1.92-2.4,1.92-2.4.76-.77,2.37-.15,2.37-.15a2.12,2.12,0,0,1,1.15,1.08l.69.93.69.46v.62a4.86,4.86,0,0,1,.58,2.39l-.05.77-.11.39c.11-.39,2.33.08,2.33.08.85-2.09,4.6-1.55,4.6-1.55a2.82,2.82,0,0,1,3.45-.85s.45,0,.3-.61S33,15.61,33,15.61c.23-.39-.92-2.94-.92-2.94a4,4,0,0,1-2.22-.15c-1.53-.16-.76-1.16-.76-1.16,0-1.08,1.22-1.24,1.22-1.24.77-.15,3.22,2.32,3.22,2.32A18,18,0,0,1,37.11,20a37.78,37.78,0,0,1-3.22,3.16c-1.15,1.32-3.75,1.39-3.75,1.39l-1,.7c.31.46-2.68,8.73-2.68,8.73-.53.85,1.53,6.18,1.53,6.18H17.2c.53-.62,1.37-5.49,1.37-5.49.08-.62-2-3.78-2-3.78a12.43,12.43,0,0,1-6.28,4.4c-1.76.15-2.37-4.87-2.37-4.87s.3-4,.38-4.48a39.68,39.68,0,0,1,2-3.7A3.17,3.17,0,0,1,11.22,22.4Z"/><circle class="cls-3" cx="21.71" cy="22.84" r="18.38"/></svg>