<svg xmlns="http://www.w3.org/2000/svg" viewBox="0 0 200 50"><defs><style>.cls-1{fill:#fff;stroke:#fff;}.cls-1,.cls-3,.cls-4,.cls-5,.cls-6{stroke-miterlimit:10;}.cls-2{fill:#ffde59;}.cls-3{fill:none;stroke:#000015;stroke-width:2px;}.cls-4,.cls-5{fill:#fde62d;stroke:#fde62d;}.cls-4,.cls-5,.cls-6{stroke-linecap:square;}.cls-4,.cls-6{stroke-width:0.5px;}.cls-5{stroke-width:0.25px;}.cls-6{fill:#1c1c1b;stroke:#1c1c1b;}</style></defs><g id="Capa_1" data-name="Capa 1"><circle class="cls-1" cx="25.59" cy="27.34" r="19.34"/><path class="cls-2" d="M15.63,26.92l.65.44.22.44.07.59-1.23,1.14-.8.7-.15,1.46c.22.22,1.46,2.57,1.46,2.57a4.13,4.13,0,0,1,1.74-2.64c.58-3.08,4.15-2.93,4.15-2.93V29c0-.29,1.24-1.4,1.24-1.4.22-.51-.66-1.68-.66-1.68-.22.07-1.67-1.18-1.67-1.18-.87-.07-1.17-2.2-1.17-2.2,0-1.47,1.82-2.27,1.82-2.27.73-.74,2.26-.15,2.26-.15a2,2,0,0,1,1.09,1l.66.88.65.44V23a4.67,4.67,0,0,1,.56,2.28l-.05.73-.11.37c.11-.37,2.22.07,2.22.07C29.38,24.5,33,25,33,25a2.65,2.65,0,0,1,3.27-.81s.44,0,.29-.59-.22-3.15-.22-3.15c.22-.37-.87-2.79-.87-2.79a3.7,3.7,0,0,1-2.11-.15c-1.45-.15-.73-1.1-.73-1.1,0-1,1.17-1.18,1.17-1.18.73-.14,3,2.21,3,2.21a16.91,16.91,0,0,1,3.42,7.19,34.8,34.8,0,0,1-3,3C36.08,28.91,33.6,29,33.6,29l-.94.66c.29.44-2.55,8.29-2.55,8.29-.51.81,1.45,5.87,1.45,5.87H21.3c.51-.58,1.31-5.21,1.31-5.21C22.69,38,20.72,35,20.72,35a11.82,11.82,0,0,1-6,4.18c-1.67.15-2.25-4.62-2.25-4.62s.29-3.82.36-4.26a36.13,36.13,0,0,1,1.89-3.52A3.17,3.17,0,0,1,15.63,26.92Z"/><circle class="cls-3" cx="25.59" cy="27.34" r="17.46"/></g><g id="Capa_2" data-name="Capa 2"><path class="cls-4" d="M47.59,41.76a41.81,41.81,0,0,0,1.76-11.37A41.91,41.91,0,0,0,47.48,17.3c1.5.15,5.21.52,8.64,1.13a6,6,0,0,1,2.4.9,6.32,6.32,0,0,1,2.27,2.94,11.62,11.62,0,0,1,.8,4.54,11.62,11.62,0,0,1-.8,4.56,6.71,6.71,0,0,1-2.27,2.94,5.94,5.94,0,0,1-3.51,1H50.37L52,32.9v8.21ZM52,33.5l-1.61-2.59h4.44a2.89,2.89,0,0,0,2.43-1.07,4.9,4.9,0,0,0,.82-3,4.81,4.81,0,0,0-.82-3,2.91,2.91,0,0,0-2.43-1.06H50.37L52,20.15Z"/><path class="cls-4" d="M64.15,39.31c-.56-.55-.43-7.31-.43-9,0-1.27-.16-6.1-.08-8.28a16.09,16.09,0,0,1,.14-1.9,2.27,2.27,0,0,1,1.16-1.42,12.73,12.73,0,0,1,1.9,0c3,.09,6.19.19,7.84.26.27,0,1.16,0,2.38.08l1.29.08c.13.23.25.41.34.54l.1.15.32.43c.43.55.09,7,.18,9.87h0c0,1.93,0,3,0,6.35,0,.37,0,1.2,0,1.59l-.56.62a4.35,4.35,0,0,1-.86.79,2.25,2.25,0,0,1-1.22.17c-.74,0-1.48.07-2.22,0H73.13c-.73,0-1.26.06-1.75.11-6.25.54-5.48.31-5.59.34a2.2,2.2,0,0,1-1.27-.42C64.3,39.46,64.16,39.33,64.15,39.31Zm9.37-2.23A5.21,5.21,0,0,0,75,35.5c.43-.68.43-10.17,0-10.86a5.21,5.21,0,0,0-1.51-1.58,6.51,6.51,0,0,0-3.76,0,4.86,4.86,0,0,0-1.5,1.58c-.43.69-.43,10.18,0,10.86a4.86,4.86,0,0,0,1.5,1.58A6.51,6.51,0,0,0,73.52,37.08Z"/><path class="cls-4" d="M85.3,39Q83,29,80.66,19.07l4,.1q2,9.52,4.09,19H86.9q2.26-9.37,4.52-18.75h3.24Q96.82,28.85,99,38.22H97.23q1.71-9.37,3.41-18.75h4L101,38.57l-5.17.11L92.44,22.62h1q-1.48,8.13-3,16.26Z"/><path class="cls-5" d="M110.78,35a22.06,22.06,0,0,0,3.5.18,20.85,20.85,0,0,0,4.82-.7,20.09,20.09,0,0,0,.31,3.77c0,.12,0,.22.06.29-1.93,0-3.9,0-5.91,0q-3.51,0-6.87.11.15-5.25.09-10.84c0-2.87-.1-5.68-.21-8.4l6.69,0,6-.07-.63,3.42c-1.19-.1-2.48-.16-3.86-.15a42.29,42.29,0,0,0-4.23.21Zm-.51-7.79a15.23,15.23,0,0,0,7.62-.75,21.41,21.41,0,0,0-.09,2.21,20.41,20.41,0,0,0,.15,2.21,24.28,24.28,0,0,0-3.84-.37,25.38,25.38,0,0,0-3.81.23Z"/><path class="cls-4" d="M121.49,38.42a106.12,106.12,0,0,0,.24-11.33q-.14-4.07-.53-7.7c2.07.07,3.76,0,4.91,0,3.46-.12,4.77-.41,6.07.53a5.6,5.6,0,0,1,1.67,2.35,10,10,0,0,1,.8,4.54,11.81,11.81,0,0,1-.8,4.56,6.42,6.42,0,0,1-2.28,2.89,6.13,6.13,0,0,1-3.51,1h-4.63L125,32.9l.31,5.6-1.81,0ZM125,33.5l-1.6-2.59h4.44a2.87,2.87,0,0,0,2.42-1.07,4.9,4.9,0,0,0,.83-3,4.81,4.81,0,0,0-.83-3,2.89,2.89,0,0,0-2.42-1.06h-4.44l1.6-2.59Zm4.39,5-2.07-5.17h3.77l2.71,5.28c-.73-.06-1.49-.1-2.29-.12S130.09,38.45,129.42,38.47Z"/><path class="cls-6" d="M146.82,39c-3.46-.23-6-.22-6.87-.18a4.78,4.78,0,0,1-1.56-.11,4.39,4.39,0,0,1-1.33-.63c-1.1-.81-.71-17.71-.61-17.9a2.93,2.93,0,0,1,1.17-1A31.31,31.31,0,0,1,142.4,19c1.58,0,1.3,0,2.15,0s3-.14,3.85-.14h0a2.51,2.51,0,0,1,1.23.14c1.15.49,1.55,2,1.71,2.84l-2.42,3.45c-.12-1.4-.49-1.84-.83-2s-3.07-.07-4-.13L142.18,23a3.35,3.35,0,0,0-1.4,1.36c-.38,1.46-.13,7.56-.31,9.07a1.64,1.64,0,0,0,0,.39,7.23,7.23,0,0,0,1.86,1.22,9,9,0,0,0,1.54,0,27.36,27.36,0,0,0,4.56-1c1-.3,1.2-.4,1.48-.28,1.15.47,1.15,3.14.94,5.43Zm.85-.42V30.33l3.2-.63v9.55Z"/><path class="cls-6" d="M157.8,39.34l.09-7.12.8,3.3-6.87-16.68H156l4.9,12.63h-2.14l4.83-13,3.72-.21q-3.32,8.61-6.65,17.22l.8-3.3.54,7.36Z"/><path class="cls-6" d="M168.5,40a82.56,82.56,0,0,0-.16-21.59l3.91-.08q3,8.31,6,16.63h-1.54l6.54-17.14,4.48-.22a50.09,50.09,0,0,0,.25,24.11l-5.07-.55-.27-15h.65l-5.11,13.18h-1.56L171.4,26.14h.72l1,14.09c-.8,0-1.62-.07-2.45-.13S169.2,40,168.5,40Z"/></g></svg>